<svg enable-background="new 0 0 24 24" height="512" fill="#43425d" viewBox="0 0 24 24" width="512" xmlns="http://www.w3.org/2000/svg"><path d="m22.5 24h-11c-.276 0-.5-.224-.5-.5v-11c0-.276.224-.5.5-.5h11c.276 0 .5.224.5.5v11c0 .276-.224.5-.5.5zm-10.5-1h10v-10h-10z"/><path d="m17 13h-11c-.276 0-.5-.224-.5-.5v-11c0-.276.224-.5.5-.5h11c.276 0 .5.224.5.5v11c0 .276-.224.5-.5.5zm-10.5-1h10v-10h-10z"/><path d="m13 6h-3c-.276 0-.5-.224-.5-.5v-4c0-.276.224-.5.5-.5h3c.276 0 .5.224.5.5v4c0 .276-.224.5-.5.5zm-2.5-1h2v-3h-2z"/><path d="m18.5 17h-3c-.276 0-.5-.224-.5-.5v-4c0-.276.224-.5.5-.5h3c.276 0 .5.224.5.5v4c0 .276-.224.5-.5.5zm-2.5-1h2v-3h-2z"/><path d="m11.5 24h-11c-.276 0-.5-.224-.5-.5v-11c0-.276.224-.5.5-.5h11c.276 0 .5.224.5.5v11c0 .276-.224.5-.5.5zm-10.5-1h10v-10h-10z"/><path d="m7.5 17h-3c-.276 0-.5-.224-.5-.5v-4c0-.276.224-.5.5-.5h3c.276 0 .5.224.5.5v4c0 .276-.224.5-.5.5zm-2.5-1h2v-3h-2z"/></svg>