<svg enable-background="new 0 0 24 24" height="512" viewBox="0 0 24 24" width="512" xmlns="http://www.w3.org/2000/svg"><path d="m23.5 24c-.161 0-.319-.078-.416-.223l-1.406-2.109c-.28-.418-.745-.668-1.248-.668h-12.48c-.276 0-.5-.224-.5-.5s.224-.5.5-.5h12.48c.838 0 1.615.416 2.08 1.113l1.406 2.109c.153.23.091.54-.139.693-.085.058-.181.085-.277.085z"/><path d="m5.5 18.997c-.276 0-.5-.224-.5-.5v-16.957c0-.273-.222-.498-.495-.5l-4.01-.04c-.276-.003-.498-.229-.495-.505s.263-.497.505-.495l4.01.04c.819.008 1.485.681 1.485 1.5v16.957c0 .276-.224.5-.5.5z"/><path d="m5.5 23.997c-1.654 0-3-1.346-3-3s1.346-3 3-3 3 1.346 3 3-1.346 3-3 3zm0-5c-1.103 0-2 .897-2 2s.897 2 2 2 2-.897 2-2-.897-2-2-2z"/><path d="m20.5 19h-10.917c-.276 0-.5-.224-.5-.5s.224-.5.5-.5h10.417v-8h-12v6.611c0 .276-.224.5-.5.5s-.5-.223-.5-.5v-7.111c0-.276.224-.5.5-.5h13c.276 0 .5.224.5.5v9c0 .276-.224.5-.5.5z"/><path d="m18.5 16h-3c-.276 0-.5-.224-.5-.5s.224-.5.5-.5h3c.276 0 .5.224.5.5s-.224.5-.5.5z"/><path d="m16.5 10h-9c-.276 0-.5-.224-.5-.5v-9c0-.276.224-.5.5-.5h9c.276 0 .5.224.5.5v9c0 .276-.224.5-.5.5zm-8.5-1h8v-8h-8z"/><path d="m14.5 7h-2c-.276 0-.5-.224-.5-.5s.224-.5.5-.5h2c.276 0 .5.224.5.5s-.224.5-.5.5z"/></svg>