<?xml version="1.0" encoding="iso-8859-1"?>
<!-- Generator: Adobe Illustrator 19.0.0, SVG Export Plug-In . SVG Version: 6.00 Build 0)  -->
<svg xmlns="http://www.w3.org/2000/svg" xmlns:xlink="http://www.w3.org/1999/xlink" width="100%" height="100%" viewBox="0 0 24 24">
    <defs>
        <path id="a-edit-icon___vJXFtEka" d="M14.06 9.02l.92.92L5.92 19H5v-.92l9.06-9.06zM17.66 3c-.25 0-.51.1-.7.29l-1.123 1.123a1 1 0 0 0 0 1.414l2.336 2.336a1 1 0 0 0 1.414 0L20.71 7.04a.996.996 0 0 0 0-1.41l-2.34-2.34c-.2-.2-.45-.29-.71-.29zm-4.307 3.897l-10.06 10.06a1 1 0 0 0-.293.707V21h3.336a1 1 0 0 0 .707-.293l10.06-10.06a1 1 0 0 0 0-1.414l-2.336-2.336a1 1 0 0 0-1.414 0z"></path>
    </defs>
    <g fill="none" fill-rule="evenodd">
        <path d="M0 0h24v24H0z"></path>
        <mask id="b-edit-icon___vJXFtEka" fill="#fff">
            <use xlink:href="#a-edit-icon___vJXFtEka"></use>
        </mask>
        <use fill="#0096BC" fill-rule="nonzero" xlink:href="#a-edit-icon___vJXFtEka"></use>
        <g fill="#0096BC" fill-rule="nonzero" mask="url(#b-edit-icon___vJXFtEka)">
            <path d="M0 0h24v24H0z"></path>
        </g>
    </g>
</svg>